v 1 0 -1
v 0.984808 0.173648 -1
v 0.939693 0.34202 -1
v 0.866025 0.5 -1
v 0.766044 0.642788 -1
v 0.642788 0.766044 -1
v 0.5 0.866025 -1
v 0.34202 0.939693 -1
v 0.173648 0.984808 -1
v 6.12323e-17 1 -1
v -0.173648 0.984808 -1
v -0.34202 0.939693 -1
v -0.5 0.866025 -1
v -0.642788 0.766044 -1
v -0.766044 0.642788 -1
v -0.866025 0.5 -1
v -0.939693 0.34202 -1
v -0.984808 0.173648 -1
v -1 1.22465e-16 -1
v -0.984808 -0.173648 -1
v -0.939693 -0.34202 -1
v -0.866025 -0.5 -1
v -0.766044 -0.642788 -1
v -0.642788 -0.766044 -1
v -0.5 -0.866025 -1
v -0.34202 -0.939693 -1
v -0.173648 -0.984808 -1
v -1.83697e-16 -1 -1
v 0.173648 -0.984808 -1
v 0.34202 -0.939693 -1
v 0.5 -0.866025 -1
v 0.642788 -0.766044 -1
v 0.766044 -0.642788 -1
v 0.866025 -0.5 -1
v 0.939693 -0.34202 -1
v 0.984808 -0.173648 -1
v 1 0 -1
v 0.984808 0.173648 -1
v 0.939693 0.34202 -1
v 0.866025 0.5 -1
v 0.766044 0.642788 -1
v 0.642788 0.766044 -1
v 0.5 0.866025 -1
v 0.34202 0.939693 -1
v 0.173648 0.984808 -1
v 6.12323e-17 1 -1
v -0.173648 0.984808 -1
v -0.34202 0.939693 -1
v -0.5 0.866025 -1
v -0.642788 0.766044 -1
v -0.766044 0.642788 -1
v -0.866025 0.5 -1
v -0.939693 0.34202 -1
v -0.984808 0.173648 -1
v -1 1.22465e-16 -1
v -0.984808 -0.173648 -1
v -0.939693 -0.34202 -1
v -0.866025 -0.5 -1
v -0.766044 -0.642788 -1
v -0.642788 -0.766044 -1
v -0.5 -0.866025 -1
v -0.34202 -0.939693 -1
v -0.173648 -0.984808 -1
v -1.83697e-16 -1 -1
v 0.173648 -0.984808 -1
v 0.34202 -0.939693 -1
v 0.5 -0.866025 -1
v 0.642788 -0.766044 -1
v 0.766044 -0.642788 -1
v 0.866025 -0.5 -1
v 0.939693 -0.34202 -1
v 0.984808 -0.173648 -1
v 1 0 1
v 0.984808 0.173648 1
v 0.939693 0.34202 1
v 0.866025 0.5 1
v 0.766044 0.642788 1
v 0.642788 0.766044 1
v 0.5 0.866025 1
v 0.34202 0.939693 1
v 0.173648 0.984808 1
v 6.12323e-17 1 1
v -0.173648 0.984808 1
v -0.34202 0.939693 1
v -0.5 0.866025 1
v -0.642788 0.766044 1
v -0.766044 0.642788 1
v -0.866025 0.5 1
v -0.939693 0.34202 1
v -0.984808 0.173648 1
v -1 1.22465e-16 1
v -0.984808 -0.173648 1
v -0.939693 -0.34202 1
v -0.866025 -0.5 1
v -0.766044 -0.642788 1
v -0.642788 -0.766044 1
v -0.5 -0.866025 1
v -0.34202 -0.939693 1
v -0.173648 -0.984808 1
v -1.83697e-16 -1 1
v 0.173648 -0.984808 1
v 0.34202 -0.939693 1
v 0.5 -0.866025 1
v 0.642788 -0.766044 1
v 0.766044 -0.642788 1
v 0.866025 -0.5 1
v 0.939693 -0.34202 1
v 0.984808 -0.173648 1
v 1 0 1
v 0.984808 0.173648 1
v 0.939693 0.34202 1
v 0.866025 0.5 1
v 0.766044 0.642788 1
v 0.642788 0.766044 1
v 0.5 0.866025 1
v 0.34202 0.939693 1
v 0.173648 0.984808 1
v 6.12323e-17 1 1
v -0.173648 0.984808 1
v -0.34202 0.939693 1
v -0.5 0.866025 1
v -0.642788 0.766044 1
v -0.766044 0.642788 1
v -0.866025 0.5 1
v -0.939693 0.34202 1
v -0.984808 0.173648 1
v -1 1.22465e-16 1
v -0.984808 -0.173648 1
v -0.939693 -0.34202 1
v -0.866025 -0.5 1
v -0.766044 -0.642788 1
v -0.642788 -0.766044 1
v -0.5 -0.866025 1
v -0.34202 -0.939693 1
v -0.173648 -0.984808 1
v -1.83697e-16 -1 1
v 0.173648 -0.984808 1
v 0.34202 -0.939693 1
v 0.5 -0.866025 1
v 0.642788 -0.766044 1
v 0.766044 -0.642788 1
v 0.866025 -0.5 1
v 0.939693 -0.34202 1
v 0.984808 -0.173648 1
vn 0 0 1
vn 0 0 1
vn 0 0 1
vn 0 0 1
vn 0 0 1
vn 0 0 1
vn 0 0 1
vn 0 0 1
vn 0 0 1
vn 0 0 1
vn 0 0 1
vn 0 0 1
vn 0 0 1
vn 0 0 1
vn 0 0 1
vn 0 0 1
vn 0 0 1
vn 0 0 1
vn 0 0 1
vn 0 0 1
vn 0 0 1
vn 0 0 1
vn 0 0 1
vn 0 0 1
vn 0 0 1
vn 0 0 1
vn 0 0 1
vn 0 0 1
vn 0 0 1
vn 0 0 1
vn 0 0 1
vn 0 0 1
vn 0 0 1
vn 0 0 1
vn 0 0 1
vn 0 0 1
vn 1 0 0
vn 0.984808 0.173648 0
vn 0.939693 0.34202 0
vn 0.866025 0.5 0
vn 0.766044 0.642788 0
vn 0.642788 0.766044 0
vn 0.5 0.866025 0
vn 0.34202 0.939693 0
vn 0.173648 0.984808 0
vn 6.12323e-17 1 0
vn -0.173648 0.984808 0
vn -0.34202 0.939693 0
vn -0.5 0.866025 0
vn -0.642788 0.766044 0
vn -0.766044 0.642788 0
vn -0.866025 0.5 0
vn -0.939693 0.34202 0
vn -0.984808 0.173648 0
vn -1 1.22465e-16 0
vn -0.984808 -0.173648 0
vn -0.939693 -0.34202 0
vn -0.866025 -0.5 0
vn -0.766044 -0.642788 0
vn -0.642788 -0.766044 0
vn -0.5 -0.866025 0
vn -0.34202 -0.939693 0
vn -0.173648 -0.984808 0
vn -1.83697e-16 -1 0
vn 0.173648 -0.984808 0
vn 0.34202 -0.939693 0
vn 0.5 -0.866025 0
vn 0.642788 -0.766044 0
vn 0.766044 -0.642788 0
vn 0.866025 -0.5 0
vn 0.939693 -0.34202 0
vn 0.984808 -0.173648 0
vn 0 0 1
vn 0 0 1
vn 0 0 1
vn 0 0 1
vn 0 0 1
vn 0 0 1
vn 0 0 1
vn 0 0 1
vn 0 0 1
vn 0 0 1
vn 0 0 1
vn 0 0 1
vn 0 0 1
vn 0 0 1
vn 0 0 1
vn 0 0 1
vn 0 0 1
vn 0 0 1
vn 0 0 1
vn 0 0 1
vn 0 0 1
vn 0 0 1
vn 0 0 1
vn 0 0 1
vn 0 0 1
vn 0 0 1
vn 0 0 1
vn 0 0 1
vn 0 0 1
vn 0 0 1
vn 0 0 1
vn 0 0 1
vn 0 0 1
vn 0 0 1
vn 0 0 1
vn 0 0 1
vn 1 0 0
vn 0.984808 0.173648 0
vn 0.939693 0.34202 0
vn 0.866025 0.5 0
vn 0.766044 0.642788 0
vn 0.642788 0.766044 0
vn 0.5 0.866025 0
vn 0.34202 0.939693 0
vn 0.173648 0.984808 0
vn 6.12323e-17 1 0
vn -0.173648 0.984808 0
vn -0.34202 0.939693 0
vn -0.5 0.866025 0
vn -0.642788 0.766044 0
vn -0.766044 0.642788 0
vn -0.866025 0.5 0
vn -0.939693 0.34202 0
vn -0.984808 0.173648 0
vn -1 1.22465e-16 0
vn -0.984808 -0.173648 0
vn -0.939693 -0.34202 0
vn -0.866025 -0.5 0
vn -0.766044 -0.642788 0
vn -0.642788 -0.766044 0
vn -0.5 -0.866025 0
vn -0.34202 -0.939693 0
vn -0.173648 -0.984808 0
vn -1.83697e-16 -1 0
vn 0.173648 -0.984808 0
vn 0.34202 -0.939693 0
vn 0.5 -0.866025 0
vn 0.642788 -0.766044 0
vn 0.766044 -0.642788 0
vn 0.866025 -0.5 0
vn 0.939693 -0.34202 0
vn 0.984808 -0.173648 0
f 1//1 2//2 3//3
f 1//1 3//3 4//4
f 1//1 4//4 5//5
f 1//1 5//5 6//6
f 1//1 6//6 7//7
f 1//1 7//7 8//8
f 1//1 8//8 9//9
f 1//1 9//9 10//10
f 1//1 10//10 11//11
f 1//1 11//11 12//12
f 1//1 12//12 13//13
f 1//1 13//13 14//14
f 1//1 14//14 15//15
f 1//1 15//15 16//16
f 1//1 16//16 17//17
f 1//1 17//17 18//18
f 1//1 18//18 19//19
f 1//1 19//19 20//20
f 1//1 20//20 21//21
f 1//1 21//21 22//22
f 1//1 22//22 23//23
f 1//1 23//23 24//24
f 1//1 24//24 25//25
f 1//1 25//25 26//26
f 1//1 26//26 27//27
f 1//1 27//27 28//28
f 1//1 28//28 29//29
f 1//1 29//29 30//30
f 1//1 30//30 31//31
f 1//1 31//31 32//32
f 1//1 32//32 33//33
f 1//1 33//33 34//34
f 1//1 34//34 35//35
f 1//1 35//35 36//36
f 73//73 74//74 75//75
f 73//73 75//75 76//76
f 73//73 76//76 77//77
f 73//73 77//77 78//78
f 73//73 78//78 79//79
f 73//73 79//79 80//80
f 73//73 80//80 81//81
f 73//73 81//81 82//82
f 73//73 82//82 83//83
f 73//73 83//83 84//84
f 73//73 84//84 85//85
f 73//73 85//85 86//86
f 73//73 86//86 87//87
f 73//73 87//87 88//88
f 73//73 88//88 89//89
f 73//73 89//89 90//90
f 73//73 90//90 91//91
f 73//73 91//91 92//92
f 73//73 92//92 93//93
f 73//73 93//93 94//94
f 73//73 94//94 95//95
f 73//73 95//95 96//96
f 73//73 96//96 97//97
f 73//73 97//97 98//98
f 73//73 98//98 99//99
f 73//73 99//99 100//100
f 73//73 100//100 101//101
f 73//73 101//101 102//102
f 73//73 102//102 103//103
f 73//73 103//103 104//104
f 73//73 104//104 105//105
f 73//73 105//105 106//106
f 73//73 106//106 107//107
f 73//73 107//107 108//108
f 38//56 109//127 110//128
f 109//109 37//37 38//38
f 39//57 110//128 111//129
f 110//110 38//38 39//39
f 40//58 111//129 112//130
f 111//111 39//39 40//40
f 41//59 112//130 113//131
f 112//112 40//40 41//41
f 42//60 113//131 114//132
f 113//113 41//41 42//42
f 43//61 114//132 115//133
f 114//114 42//42 43//43
f 44//62 115//133 116//134
f 115//115 43//43 44//44
f 45//63 116//134 117//135
f 116//116 44//44 45//45
f 46//64 117//135 118//136
f 117//117 45//45 46//46
f 47//65 118//136 119//137
f 118//118 46//46 47//47
f 48//66 119//137 120//138
f 119//119 47//47 48//48
f 49//67 120//138 121//139
f 120//120 48//48 49//49
f 50//68 121//139 122//140
f 121//121 49//49 50//50
f 51//69 122//140 123//141
f 122//122 50//50 51//51
f 52//70 123//141 124//142
f 123//123 51//51 52//52
f 53//71 124//142 125//143
f 124//124 52//52 53//53
f 54//72 125//143 126//144
f 125//125 53//53 54//54
f 55//37 126//144 127//109
f 126//126 54//54 55//55
f 56//38 127//109 128//110
f 127//127 55//55 56//56
f 57//39 128//110 129//111
f 128//128 56//56 57//57
f 58//40 129//111 130//112
f 129//129 57//57 58//58
f 59//41 130//112 131//113
f 130//130 58//58 59//59
f 60//42 131//113 132//114
f 131//131 59//59 60//60
f 61//43 132//114 133//115
f 132//132 60//60 61//61
f 62//44 133//115 134//116
f 133//133 61//61 62//62
f 63//45 134//116 135//117
f 134//134 62//62 63//63
f 64//46 135//117 136//118
f 135//135 63//63 64//64
f 65//47 136//118 137//119
f 136//136 64//64 65//65
f 66//48 137//119 138//120
f 137//137 65//65 66//66
f 67//49 138//120 139//121
f 138//138 66//66 67//67
f 68//50 139//121 140//122
f 139//139 67//67 68//68
f 69//51 140//122 141//123
f 140//140 68//68 69//69
f 70//52 141//123 142//124
f 141//141 69//69 70//70
f 71//53 142//124 143//125
f 142//142 70//70 71//71
f 72//54 143//125 144//126
f 143//143 71//71 72//72
f 37//37 109//109 144//144
f 144//126 37//55 72//54
